HIERARCHY
ROOT Hips
{
    OFFSET 0.000000 0.000000 0.000000
    CHANNELS 6 Xposition Yposition Zposition Zrotation Xrotation Yrotation
    JOINT Spine
    {
        OFFSET -0.000000 14.517291 0.000000
        CHANNELS 3 Zrotation Xrotation Yrotation
        JOINT Spine1
        {
            OFFSET -0.000000 37.558300 0.000000
            CHANNELS 3 Zrotation Xrotation Yrotation
            JOINT Neck
            {
                OFFSET -0.000000 37.404057 3.400369
                CHANNELS 3 Zrotation Xrotation Yrotation
                JOINT Head
                {
                    OFFSET -0.000000 24.785618 -3.540803
                    CHANNELS 3 Zrotation Xrotation Yrotation
                    End Site
                    {
                        OFFSET -0.000000 35.408028 0.000000
                    }
                }
            }
            JOINT LeftShoulder
            {
                OFFSET 6.992933 33.973492 -0.192664
                CHANNELS 3 Zrotation Xrotation Yrotation
                JOINT LeftArm
                {
                    OFFSET 21.527611 0.000000 0.000000
                    CHANNELS 3 Zrotation Xrotation Yrotation
                    JOINT LeftForeArm
                    {
                        OFFSET 56.353916 0.000000 0.000000
                        CHANNELS 3 Zrotation Xrotation Yrotation
                        JOINT LeftHand
                        {
                            OFFSET 47.774071 0.000000 0.000000
                            CHANNELS 3 Zrotation Xrotation Yrotation
                            End Site
                            {
                                OFFSET 26.556021 0.000000 0.000000
                            }
                        }
                    }
                }
            }
            JOINT RightShoulder
            {
                OFFSET -7.065357 33.973492 -0.192664
                CHANNELS 3 Zrotation Xrotation Yrotation
                JOINT RightArm
                {
                    OFFSET -21.527611 0.000000 0.000000
                    CHANNELS 3 Zrotation Xrotation Yrotation
                    JOINT RightForeArm
                    {
                        OFFSET -56.353916 0.000000 0.000000
                        CHANNELS 3 Zrotation Xrotation Yrotation
                        JOINT RightHand
                        {
                            OFFSET -47.774071 0.000000 0.000000
                            CHANNELS 3 Zrotation Xrotation Yrotation
                            End Site
                            {
                                OFFSET -26.556021 0.000000 0.000000
                            }
                        }
                    }
                }
            }
        }
    }
    JOINT LeftUpLeg
    {
        OFFSET 17.704014 0.000000 0.000000
        CHANNELS 3 Zrotation Xrotation Yrotation
        JOINT LeftLeg
        {
            OFFSET -0.000000 -81.181816 0.000000
            CHANNELS 3 Zrotation Xrotation Yrotation
            JOINT LeftFoot
            {
                OFFSET -0.000000 -62.821102 0.000000
                CHANNELS 3 Zrotation Xrotation Yrotation
                JOINT LeftToeBase
                {
                    OFFSET -0.000000 -11.507608 26.556021
                    CHANNELS 3 Zrotation Xrotation Yrotation
                    End Site
                    {
                        OFFSET -0.000000 0.000000 7.081605
                    }
                }
            }
        }
    }
    JOINT RightUpLeg
    {
        OFFSET -17.704014 0.000000 0.000000
        CHANNELS 3 Zrotation Xrotation Yrotation
        JOINT RightLeg
        {
            OFFSET -0.000000 -81.181816 0.000000
            CHANNELS 3 Zrotation Xrotation Yrotation
            JOINT RightFoot
            {
                OFFSET -0.000000 -62.821102 0.000000
                CHANNELS 3 Zrotation Xrotation Yrotation
                JOINT RightToeBase
                {
                    OFFSET -0.000000 -11.507608 26.556021
                    CHANNELS 3 Zrotation Xrotation Yrotation
                    End Site
                    {
                        OFFSET -0.000000 0.000000 7.081605
                    }
                }
            }
        }
    }
}
MOTION
Frames:    13
Frame Time:    0.008333
-9.289712    157.967117    -91.656639    -3.475597    -6.014751    48.626251    -0.157631    -2.851847    0.324801    -7.428821    0.829501    0.159884    4.079259    8.681867    -21.121624    17.563559    -4.157571    -19.272369    7.624140    5.679677    -18.290052    -27.444555    13.184050    -63.949352    -7.691745    -21.292931    -111.700928    -9.139442    -30.648081    -12.104148    -16.342428    -6.560064    -3.993591    12.821923    -26.790245    48.826187    -6.326900    -2.038768    13.739482    -8.779395    -3.972749    34.118538    23.766855    0.380966    -3.845085    -9.886325    23.718102    -19.658508    -3.657125    -24.141895    41.297195    0.000000    0.000000    0.000000    -10.817550    -13.961285    -22.474510    5.046072    16.764727    -18.929983    7.025475    9.279743    -10.412742    0.000000    0.000000    0.000000    
-9.318742    157.966751    -91.663345    -3.470936    -6.010669    48.627037    -0.151590    -2.863428    0.345093    -7.427430    0.844709    0.167602    4.056735    8.688722    -21.133673    17.578316    -4.194031    -19.275141    7.538075    5.703848    -18.208147    -27.556694    13.155719    -63.811146    -7.012775    -22.129345    -110.730614    -9.317041    -30.366270    -12.180194    -16.368155    -6.558317    -4.012827    12.842280    -26.799101    48.821785    -6.315054    -2.042778    13.745019    -8.749017    -3.968262    34.115826    23.760450    0.374783    -3.834262    -9.870691    23.714437    -19.666658    -3.687757    -24.153284    41.297600    0.000000    0.000000    0.000000    -10.821607    -13.968864    -22.484249    5.048556    16.764559    -18.947546    7.018363    9.285145    -10.381739    0.000000    0.000000    0.000000    
-9.347029    157.963852    -91.665894    -3.470427    -6.004714    48.629730    -0.150440    -2.891649    0.365691    -7.424364    0.874833    0.176727    4.080459    8.704519    -21.159033    17.554642    -4.256745    -19.297583    7.454932    5.735624    -18.132828    -27.714188    13.057333    -63.669273    -6.355196    -22.859003    -109.750771    -9.563741    -30.037697    -12.341889    -16.377441    -6.561247    -4.040556    12.829235    -26.756306    48.811024    -6.347929    -2.080750    13.743797    -8.744373    -4.000884    34.116676    23.761597    0.366674    -3.824332    -9.863853    23.700739    -19.682266    -3.684295    -24.131346    41.298710    0.000000    0.000000    0.000000    -10.823024    -13.979940    -22.502134    5.045672    16.768351    -18.946386    7.014105    9.276324    -10.368280    0.000000    0.000000    0.000000    
-9.375447    157.965408    -91.673401    -3.464691    -5.998365    48.633621    -0.141785    -2.910566    0.382453    -7.431426    0.893500    0.183352    4.053575    8.707744    -21.168089    17.573362    -4.271024    -19.299706    7.359293    5.789534    -18.054731    -27.845675    12.937523    -63.529026    -5.717598    -23.568098    -108.793892    -9.808892    -29.759356    -12.441762    -16.388657    -6.544577    -4.054546    12.846203    -26.773952    48.811275    -6.343951    -2.091501    13.753916    -8.738087    -4.007958    34.096397    23.755150    0.355172    -3.841805    -9.862927    23.697882    -19.677908    -3.700164    -24.132967    41.306885    0.000000    0.000000    0.000000    -10.827397    -13.987209    -22.515041    5.044321    16.765257    -18.918262    6.999447    9.283324    -10.376952    0.000000    0.000000    0.000000    
-9.403522    157.964310    -91.679535    -3.458454    -5.992306    48.637810    -0.144059    -2.925339    0.393302    -7.424769    0.910687    0.188209    4.038526    8.724878    -21.174486    17.587042    -4.311290    -19.296286    7.269410    5.850036    -17.952625    -28.021971    12.774296    -63.405293    -5.089844    -24.163401    -107.792099    -10.122960    -29.390059    -12.755566    -16.405369    -6.535978    -4.058811    12.865331    -26.789932    48.802685    -6.343553    -2.088825    13.753523    -8.683806    -3.989958    34.112896    23.751268    0.350861    -3.857919    -9.868235    23.680290    -19.655678    -3.695884    -24.105316    41.298248    0.000000    0.000000    0.000000    -10.832261    -13.993007    -22.539799    5.041351    16.762644    -18.904394    6.983008    9.282619    -10.373044    0.000000    0.000000    0.000000    
-9.430182    157.965271    -91.684891    -3.450099    -5.989774    48.643024    -0.130929    -2.936741    0.405680    -7.442594    0.932772    0.193860    4.043739    8.739396    -21.187935    17.586847    -4.360827    -19.302813    7.181273    5.892917    -17.849833    -28.206778    12.590200    -63.281715    -4.475009    -24.671307    -106.789139    -10.059055    -29.029207    -12.972370    -16.413887    -6.534198    -4.079953    12.870649    -26.770042    48.796940    -6.361160    -2.119848    13.760584    -8.651832    -4.007343    34.098640    23.747528    0.353541    -3.867588    -9.863882    23.662796    -19.651072    -3.688519    -24.069256    41.267208    0.000000    0.000000    0.000000    -10.837104    -13.988669    -22.538332    5.049283    16.750891    -18.907352    6.973151    9.282499    -10.364532    0.000000    0.000000    0.000000    
-9.460181    157.967560    -91.690559    -3.443478    -5.986652    48.647186    -0.134309    -2.943763    0.419586    -7.426840    0.940277    0.198722    4.021388    8.735103    -21.198921    17.575253    -4.359466    -19.315191    7.065202    5.939052    -17.751654    -28.354273    12.446774    -63.145744    -3.906798    -25.204926    -105.828110    -10.589111    -28.704121    -13.393625    -16.432478    -6.511032    -4.095931    12.900180    -26.812334    48.810753    -6.332699    -2.106177    13.759951    -8.625689    -3.987653    34.080193    23.759830    0.325854    -3.877166    -9.860335    23.626236    -19.643126    -3.797983    -24.036160    41.231255    0.000000    0.000000    0.000000    -10.836461    -13.990489    -22.553173    5.043526    16.742567    -18.895386    6.971460    9.285583    -10.372509    0.000000    0.000000    0.000000    
-9.489766    157.967804    -91.699852    -3.433144    -5.981396    48.649403    -0.124773    -2.946941    0.432340    -7.445479    0.935884    0.202478    4.006518    8.800359    -21.210121    17.622772    -4.417202    -19.306505    6.970105    5.984410    -17.650564    -28.537390    12.276586    -63.012112    -3.359936    -25.646912    -104.851067    -10.852905    -28.381420    -13.622766    -16.436020    -6.500734    -4.092575    12.900778    -26.799582    48.792988    -6.330180    -2.139160    13.765408    -8.599388    -4.010250    34.052834    23.751194    0.332066    -3.879525    -9.849567    23.601820    -19.624578    -3.788626    -23.981148    41.171135    0.000000    0.000000    0.000000    -10.844446    -13.987569    -22.544037    5.055311    16.725697    -18.894346    6.978243    9.288261    -10.384507    0.000000    0.000000    0.000000    
-9.522408    157.972641    -91.714027    -3.435191    -5.962508    48.651604    -0.109723    -2.973155    0.445433    -7.479795    0.942275    0.207759    4.020465    8.810750    -21.211531    17.609903    -4.426301    -19.309454    6.885411    6.013966    -17.555927    -28.770737    12.068402    -62.854485    -2.923043    -25.973700    -103.924347    -11.093850    -28.103838    -13.794072    -16.417078    -6.495051    -4.088811    12.884757    -26.805063    48.778149    -6.308126    -2.140992    13.753787    -8.578397    -4.009856    34.064362    23.738108    0.313823    -3.871117    -9.841807    23.584106    -19.598772    -3.815941    -23.967554    41.144253    0.000000    0.000000    0.000000    -10.848693    -14.009471    -22.562651    5.039785    16.713871    -18.889236    6.944034    9.310831    -10.360599    0.000000    0.000000    0.000000    
-9.551857    157.976349    -91.720367    -3.427946    -5.961860    48.652267    -0.096677    -2.978709    0.464225    -7.491245    0.939919    0.213585    3.986303    8.859056    -21.227692    17.663578    -4.444579    -19.310167    6.794072    6.065744    -17.469725    -28.897680    11.933605    -62.715538    -2.494452    -26.400703    -103.037224    -11.145349    -27.972755    -13.987284    -16.417700    -6.463490    -4.105187    12.858702    -26.781202    48.777992    -6.317096    -2.176421    13.732424    -8.523622    -4.026913    34.045372    23.733829    0.314613    -3.853536    -9.827684    23.571327    -19.637472    -3.840885    -23.991295    41.201019    0.000000    0.000000    0.000000    -10.845831    -14.007195    -22.584343    5.031085    16.700373    -18.906357    6.954311    9.325472    -10.332611    0.000000    0.000000    0.000000    
-9.579652    157.978561    -91.724632    -3.422661    -5.959774    48.652859    -0.077464    -2.991033    0.487300    -7.510034    0.946312    0.221853    3.976838    8.861732    -21.246330    17.660616    -4.423750    -19.332747    6.692972    6.102716    -17.378412    -29.004580    11.835859    -62.589153    -2.088778    -26.845781    -102.157982    -11.331256    -27.888800    -14.165071    -16.428249    -6.460978    -4.120423    12.848954    -26.755161    48.764286    -6.313148    -2.170784    13.715460    -8.509407    -4.019299    34.056789    23.732132    0.315712    -3.858585    -9.823992    23.554623    -19.641115    -3.848175    -23.982349    41.207039    0.000000    0.000000    0.000000    -10.839869    -14.001289    -22.575714    5.031776    16.675169    -18.937387    6.934133    9.335957    -10.307003    0.000000    0.000000    0.000000    
-9.604650    157.981628    -91.734314    -3.420129    -5.951675    48.652744    -0.054923    -3.015292    0.514188    -7.541020    0.962129    0.231942    3.992366    8.836610    -21.251961    17.624924    -4.387578    -19.352427    6.609965    6.138677    -17.292465    -29.063303    11.759813    -62.471870    -1.705907    -27.307858    -101.289307    -11.375342    -27.884516    -14.275493    -16.424797    -6.449554    -4.138112    12.846821    -26.757381    48.761894    -6.292134    -2.158525    13.688783    -8.500335    -4.010328    34.081257    23.726257    0.307932    -3.877540    -9.823520    23.540619    -19.645504    -3.850905    -23.971170    41.224564    0.000000    0.000000    0.000000    -10.840222    -14.005959    -22.565527    5.033855    16.655657    -18.936310    6.913620    9.344238    -10.310598    0.000000    0.000000    0.000000    
-9.632698    157.982300    -91.742378    -3.414677    -5.947184    48.653816    -0.029832    -3.025385    0.530993    -7.573025    0.961855    0.237320    3.983581    8.877660    -21.257481    17.641766    -4.410795    -19.349663    6.522855    6.166077    -17.206223    -29.147718    11.681678    -62.327007    -1.352991    -27.727507    -100.438721    -11.493334    -27.878744    -14.369543    -16.431728    -6.424428    -4.127248    12.829310    -26.742096    48.730385    -6.299073    -2.173081    13.669550    -8.465627    -4.015635    34.096127    23.723503    0.306320    -3.882792    -9.823371    23.519463    -19.654379    -3.862665    -23.966785    41.232224    0.000000    0.000000    0.000000    -10.840636    -14.005040    -22.553127    5.040470    16.635773    -18.937979    6.917939    9.345656    -10.322950    0.000000    0.000000    0.000000    
